<?xml version="1.0" encoding="UTF-8" standalone="no"?>
<svg width="154px" height="129px" viewBox="0 0 154 129" version="1.1" xmlns="http://www.w3.org/2000/svg" xmlns:xlink="http://www.w3.org/1999/xlink">
    <!-- Generator: Sketch 41.2 (35397) - http://www.bohemiancoding.com/sketch -->
    <title>Artboard</title>
    <desc>Created with Sketch.</desc>
    <defs>
        <polygon id="path-1" points="68.1034483 60.9673913 0 60.9673913 0 30.7147277 0 0.46206413 68.1034483 0.46206413"></polygon>
    </defs>
    <g id="Page-1" stroke="none" stroke-width="1" fill="none" fill-rule="evenodd">
        <g id="Artboard">
            <g id="Page-1" transform="translate(27.000000, 25.000000)">
                <g id="Group-3" transform="translate(0.000000, 17.570545)">
                    <mask id="mask-2" fill="white">
                        <use xlink:href="#path-1"></use>
                    </mask>
                    <g id="Clip-2"></g>
                    <path d="M4.31034483,45.114238 L10.7758621,45.114238 C11.9663793,45.114238 12.9310345,46.0751185 12.9310345,47.2609772 L12.9310345,53.8179772 L21.4974138,45.7050207 C21.8982759,45.3254772 22.4301724,45.114238 22.9827586,45.114238 L63.7931034,45.114238 L63.7931034,4.75554239 L4.31034483,4.75554239 L4.31034483,45.114238 Z M10.7758621,60.9674772 C10.4887931,60.9674772 10.2,60.9108033 9.92586207,60.7940207 C9.13448276,60.4548359 8.62068966,59.6794337 8.62068966,58.820738 L8.62068966,49.4077163 L2.15517241,49.4077163 C0.964655172,49.4077163 0,48.4468359 0,47.2609772 L0,2.60880326 C0,1.42294457 0.964655172,0.46206413 2.15517241,0.46206413 L65.9482759,0.46206413 C67.1387931,0.46206413 68.1034483,1.42294457 68.1034483,2.60880326 L68.1034483,47.2609772 C68.1034483,48.4468359 67.1387931,49.4077163 65.9482759,49.4077163 L23.8431034,49.4077163 L12.2612069,60.3758359 C11.8525862,60.7639663 11.3181034,60.9674772 10.7758621,60.9674772 L10.7758621,60.9674772 Z" id="Fill-1" fill="#009790" mask="url(#mask-2)"></path>
                </g>
                <path d="M36.2068966,45.5108696 L77.9586207,45.5108696 C78.5146552,45.5108696 79.0482759,45.7246848 79.4491379,46.1068043 L87.9310345,54.1982935 L87.9310345,47.6576087 C87.9310345,46.47175 88.8956897,45.5108696 90.0862069,45.5108696 L95.6896552,45.5108696 L95.6896552,4.29347826 L36.2068966,4.29347826 L36.2068966,45.5108696 Z M90.0862069,61.374413 C89.5413793,61.374413 89.0051724,61.1674674 88.5956897,60.7776196 L77.0931034,49.8043478 L34.0517241,49.8043478 C32.8612069,49.8043478 31.8965517,48.8434674 31.8965517,47.6576087 L31.8965517,2.14673913 C31.8965517,0.960880435 32.8612069,0 34.0517241,0 L97.8448276,0 C99.0353448,0 100,0.960880435 100,2.14673913 L100,47.6576087 C100,48.8434674 99.0353448,49.8043478 97.8448276,49.8043478 L92.2413793,49.8043478 L92.2413793,59.2276739 C92.2413793,60.0872283 91.7258621,60.8643478 90.9318966,61.2009565 C90.6594828,61.3177391 90.3724138,61.374413 90.0862069,61.374413 L90.0862069,61.374413 Z" id="Fill-4" fill="#009790"></path>
            </g>
        </g>
    </g>
</svg>