<?xml version="1.0" encoding="UTF-8" standalone="no"?>
<svg width="263px" height="197px" viewBox="0 0 263 197" version="1.1" xmlns="http://www.w3.org/2000/svg" xmlns:xlink="http://www.w3.org/1999/xlink">
    <!-- Generator: Sketch 41.2 (35397) - http://www.bohemiancoding.com/sketch -->
    <title>Page 1</title>
    <desc>Created with Sketch.</desc>
    <defs></defs>
    <g id="Page-1" stroke="none" stroke-width="1" fill="none" fill-rule="evenodd">
        <g id="Artboard-2" transform="translate(-15.000000, -14.000000)" fill="#FFFFFF">
            <g id="Page-1" transform="translate(15.000000, 13.000000)">
                <g id="Group-3" transform="translate(0.000000, 0.156000)">
                    <path d="M23.7914,108.1016 C28.3514,107.2966 32.0214,102.8656 32.0214,98.1636 L32.0214,75.4556 C32.0214,70.7536 28.3514,67.6166 23.7914,68.4206 L14.2264,70.1076 C12.8914,70.3426 12.1124,69.6766 12.1124,68.3016 L12.1124,54.5386 C12.1124,53.2786 12.7794,52.2426 14.2264,51.9876 L19.5644,51.0456 C21.0114,50.7906 21.6784,51.5906 21.6784,52.8526 L21.6784,58.8156 C21.6784,60.1926 22.4564,60.8586 23.7914,60.6226 L30.0204,59.5246 C31.3544,59.2886 32.1334,58.3486 32.1334,56.9726 L32.1334,48.6006 C32.1334,43.8996 28.4624,40.7606 23.9034,41.5656 L9.8884,44.0366 C5.3284,44.8406 1.6574,49.2726 1.6574,53.9746 L1.6574,74.3886 C1.6574,79.0896 5.3284,82.2266 9.8884,81.4226 L19.4544,79.7366 C20.8994,79.4816 21.5674,80.2816 21.5674,81.5426 L21.5674,97.5986 C21.5674,98.9746 20.7894,99.9146 19.4544,100.1496 L13.5584,101.1906 C12.1124,101.4446 11.4454,100.6446 11.4454,99.3826 L11.4454,93.4196 C11.4454,92.0426 10.6674,91.3776 9.3324,91.6136 L3.1044,92.7106 C1.7694,92.9466 0.9904,93.8876 0.9904,95.2626 L0.9904,103.6346 C0.9904,108.3366 4.6614,111.4746 9.2204,110.6696 L23.7914,108.1016 Z M41.4764,38.4666 C40.1414,38.7026 39.3624,39.6426 39.3624,41.0176 L39.3624,103.1756 C39.3624,104.5526 40.1414,105.2186 41.4764,104.9836 L47.7054,103.8846 C49.0384,103.6496 49.8164,102.7086 49.8164,101.3326 L49.8164,39.1746 C49.8164,37.7986 49.0384,37.1336 47.7054,37.3696 L41.4764,38.4666 Z M76.5094,41.0046 C77.9564,40.7496 78.6234,41.5496 78.6234,42.8116 L78.6234,48.4306 C78.6234,49.8066 79.4014,50.4726 80.7364,50.2376 L86.9644,49.1386 C88.2994,48.9036 89.0784,47.9636 89.0784,46.5866 L89.0784,38.5596 C89.0784,33.8586 85.4074,30.7196 80.8484,31.5246 L65.8334,34.1716 C61.2714,34.9756 57.6014,39.4086 57.6014,44.1096 L57.6014,93.6536 C57.6014,98.3546 61.2714,101.4916 65.8334,100.6876 L81.2924,97.9616 C85.8534,97.1586 89.5224,92.7266 89.5224,88.0246 L89.5224,61.3026 L75.1754,63.8326 C73.8404,64.0686 73.0624,65.0076 73.0624,66.3846 L73.0624,70.7436 C73.0624,72.1186 73.8404,72.7846 75.1754,72.5486 L79.0684,71.8626 L79.0684,87.4586 C79.0684,88.8346 78.2904,89.7756 76.9554,90.0116 L70.1704,91.2066 C68.8354,91.4426 68.0574,90.7766 68.0574,89.4016 L68.0574,44.6736 C68.0574,43.4136 68.7234,42.3776 70.1704,42.1226 L76.5094,41.0046 Z M121.8904,32.7746 C121.3334,28.1696 118.2194,24.9346 113.6584,25.7386 L108.4324,26.6606 C103.8714,27.4646 100.7564,31.7986 100.2004,36.5986 L93.3054,93.6646 C93.1934,95.0616 93.9724,95.7266 95.3074,95.4916 L101.7574,94.3536 C103.0924,94.1186 103.7604,93.1976 103.8714,91.8016 L105.4284,77.1916 L116.5504,75.2306 L118.2194,89.2726 C118.3304,90.6286 119.1084,91.2946 120.4434,91.0586 L126.7834,89.9406 C128.1184,89.7056 128.8974,88.7656 128.7854,87.4096 L121.8904,32.7746 Z M110.0994,35.0816 L111.9914,34.7476 L115.5494,66.4616 L106.4294,68.0696 L110.0994,35.0816 Z M150.3614,83.6036 C150.5854,84.9416 151.1404,85.6466 152.4754,85.4116 L165.0444,83.1946 C166.3794,82.9586 166.9354,82.0586 167.1574,80.6436 L173.2744,35.2956 L174.6094,23.5926 L175.1654,23.4956 L174.4994,79.3476 C174.4994,80.7246 175.2774,81.3906 176.6114,81.1556 L182.1724,80.1746 C183.5074,79.9396 184.2864,78.9976 184.2864,77.6226 L184.2864,15.4646 C184.2864,14.0886 183.5074,13.4226 182.1724,13.6586 L168.7144,16.0316 C167.3794,16.2656 166.8234,17.1666 166.6014,18.5816 L160.3734,62.4566 L159.2604,74.8096 L158.7044,74.9086 L157.5924,62.9476 L151.3644,21.2706 C151.1404,19.9326 150.5854,19.2276 149.2504,19.4626 L135.5694,21.8756 C134.2354,22.1116 133.4574,23.0506 133.4574,24.4276 L133.4574,86.5846 C133.4574,87.9616 134.2354,88.6266 135.5694,88.3916 L140.9084,87.4506 C142.2434,87.2156 143.0214,86.2746 143.0214,84.8996 L142.3544,29.2806 L142.9104,29.1816 L144.2454,40.4146 L150.3614,83.6036 Z M192.0704,69.9426 C192.0704,74.6446 195.7414,77.7816 200.3024,76.9776 L215.7624,74.2506 C220.3224,73.4476 223.9924,69.0156 223.9924,64.3136 L223.9924,14.7716 C223.9924,10.0686 220.3224,6.9316 215.7624,7.7356 L200.3024,10.4606 C195.7414,11.2656 192.0704,15.6976 192.0704,20.3996 L192.0704,69.9426 Z M211.4244,17.2156 C212.7594,16.9806 213.5384,17.6466 213.5384,19.0226 L213.5384,63.7486 C213.5384,65.1246 212.7594,66.0656 211.4244,66.3006 L204.6394,67.4966 C203.3044,67.7326 202.5264,67.0666 202.5264,65.6906 L202.5264,20.9636 C202.5264,19.7026 203.1924,18.6676 204.6394,18.4136 L211.4244,17.2156 Z M254.0224,67.5046 C258.5834,66.7016 262.2534,62.2686 262.2534,57.5676 L262.2534,34.8606 C262.2534,30.1576 258.5834,27.0206 254.0224,27.8246 L244.4574,29.5106 C243.1224,29.7476 242.3434,29.0806 242.3434,27.7056 L242.3434,13.9436 C242.3434,12.6816 243.0114,11.6466 244.4574,11.3916 L249.7964,10.4506 C251.2424,10.1946 251.9094,10.9956 251.9094,12.2566 L251.9094,18.2196 C251.9094,19.5966 252.6874,20.2616 254.0224,20.0266 L260.2504,18.9286 C261.5854,18.6926 262.3644,17.7516 262.3644,16.3756 L262.3644,8.0036 C262.3644,3.3026 258.6934,0.1656 254.1344,0.9696 L240.1204,3.4396 C235.5594,4.2456 231.8894,8.6756 231.8894,13.3786 L231.8894,33.7916 C231.8894,38.4936 235.5594,41.6306 240.1204,40.8276 L249.6854,39.1396 C251.1304,38.8846 251.7984,39.6856 251.7984,40.9476 L251.7984,57.0026 C251.7984,58.3776 251.0204,59.3196 249.6854,59.5546 L243.7904,60.5936 C242.3434,60.8486 241.6774,60.0486 241.6774,58.7876 L241.6774,52.8246 C241.6774,51.4476 240.8984,50.7826 239.5634,51.0166 L233.3344,52.1166 C231.9994,52.3506 231.2214,53.2906 231.2214,54.6666 L231.2214,63.0386 C231.2214,67.7416 234.8924,70.8786 239.4524,70.0736 L254.0224,67.5046 Z" id="Fill-1"></path>
                </g>
                <g id="Group-6" transform="translate(0.000000, 85.156000)">
                    <path d="M19.3002,50.9512 C20.7752,50.6912 21.4572,51.5072 21.4572,52.7942 L21.4572,60.0532 C21.4572,61.4582 22.2522,62.1382 23.6142,61.8962 L29.9722,60.7762 C31.3352,60.5352 32.1292,59.5752 32.1292,58.1712 L32.1292,48.4552 C32.1292,43.6552 28.3832,40.4532 23.7272,41.2732 L8.4012,43.9762 C3.7462,44.7972 0.0002,49.3212 0.0002,54.1202 L0.0002,104.6892 C0.0002,109.4902 3.7462,112.6922 8.4012,111.8722 L24.1822,109.0892 C28.8362,108.2682 32.5832,103.7442 32.5832,98.9452 L32.5832,89.2282 C32.5832,87.8242 31.7882,87.1442 30.4262,87.3862 L24.0682,88.5062 C22.7062,88.7472 21.9112,89.7062 21.9112,91.1112 L21.9112,98.3692 C21.9112,99.6562 21.2302,100.7132 19.7542,100.9722 L12.8282,102.1942 C11.4672,102.4342 10.6722,101.7552 10.6722,100.3502 L10.6722,54.6962 C10.6722,53.4092 11.3532,52.3522 12.8282,52.0922 L19.3002,50.9512 Z M71.0682,41.5892 C71.0682,36.7902 67.3222,33.5862 62.6672,34.4082 L39.3932,38.5122 L39.3932,104.1822 C39.3932,105.5882 40.1882,106.2662 41.5502,106.0262 L47.9082,104.9052 C49.2712,104.6652 50.0662,103.7052 50.0662,102.3012 L50.0662,78.4202 L53.8112,77.7612 L61.8722,100.2192 C62.3262,101.4272 63.1212,102.2222 64.4832,101.9832 L70.9552,100.8422 C72.3182,100.6002 73.1122,99.5242 72.6572,98.3172 L64.0292,75.8412 C68.0032,74.4382 71.0682,70.3862 71.0682,66.0552 L71.0682,41.5892 Z M60.3972,65.4772 C60.3972,66.8822 59.6022,67.8432 58.2392,68.0832 L50.0662,69.5232 L50.0662,45.5262 L58.2392,44.0842 C59.4882,43.8652 60.3972,44.4072 60.3972,45.9292 L60.3972,65.4772 Z M99.6772,64.4052 C101.0402,64.1642 101.8352,63.2052 101.8352,61.8002 L101.8352,57.3512 C101.8352,55.9472 101.0402,55.2682 99.6772,55.5092 L89.6872,57.2692 L89.6872,38.5402 L101.7222,36.4182 C103.0842,36.1782 103.8792,35.2192 103.8792,33.8132 L103.8792,29.3652 C103.8792,27.9612 103.0842,27.2812 101.7222,27.5212 L79.0152,31.5242 L79.0152,99.4202 L102.2902,95.3162 C103.6512,95.0762 104.4462,94.1172 104.4462,92.7122 L104.4462,88.2642 C104.4462,86.8592 103.6512,86.1802 102.2902,86.4202 L89.6872,88.6422 L89.6872,66.1662 L99.6772,64.4052 Z M136.4612,30.0572 C135.8932,25.3582 132.7152,22.0562 128.0602,22.8772 L122.7242,23.8182 C118.0692,24.6392 114.8902,29.0622 114.3232,33.9622 L107.2832,92.2112 C107.1712,93.6372 107.9662,94.3152 109.3272,94.0752 L115.9132,92.9142 C117.2742,92.6752 117.9562,91.7342 118.0692,90.3102 L119.6582,75.3972 L131.0122,73.3952 L132.7152,87.7272 C132.8282,89.1122 133.6232,89.7912 134.9862,89.5512 L141.4562,88.4102 C142.8192,88.1702 143.6132,87.2102 143.5012,85.8252 L136.4612,30.0572 Z M124.4262,32.4142 L126.3572,32.0742 L129.9892,64.4442 L120.6812,66.0862 L124.4262,32.4142 Z M150.4252,18.9332 C149.0622,19.1742 148.2682,20.1342 148.2682,21.5382 L148.2682,84.9852 C148.2682,86.3892 149.0622,87.0692 150.4252,86.8282 L155.6472,85.9082 C157.0092,85.6682 157.8042,84.7082 157.8042,83.3042 L157.1222,26.5322 L157.6902,26.4312 L158.5992,37.9782 L164.1622,82.1822 C164.3892,83.5482 164.9572,84.2662 166.3192,84.0262 L179.8292,81.6442 C181.1922,81.4042 181.9872,80.4432 181.9872,79.0402 L182.2142,15.5522 C182.2142,14.1472 181.4192,13.4692 180.0562,13.7092 L174.8342,14.6302 C173.4722,14.8702 172.6772,15.8292 172.6772,17.2342 L173.4722,73.0492 L172.9042,73.2662 L171.7682,61.0572 L166.3192,18.3552 C166.0922,16.9902 165.5252,16.2702 164.1622,16.5112 L150.4252,18.9332 Z M210.7082,34.1742 C211.0492,35.2852 211.1632,36.3192 211.1632,37.4892 L211.1632,64.9982 C211.1632,66.4022 210.3682,67.3632 209.0062,67.6032 L200.8322,69.0442 L200.8322,18.9412 L203.8962,18.4022 C204.9182,18.2222 205.8272,18.6462 206.1672,19.7582 L210.7082,34.1742 Z M215.9312,14.8752 C214.4542,10.5702 211.9582,8.0832 206.6212,9.0252 L190.1592,11.9272 L190.1592,79.8232 L213.4332,75.7192 C218.0872,74.8982 221.8342,70.3752 221.8342,65.5752 L221.8342,38.1822 C221.8342,34.4362 221.2672,30.4392 220.1322,27.2452 L215.9312,14.8752 Z M229.7812,64.1742 C229.7812,68.9732 233.5282,72.1762 238.1832,71.3542 L253.9632,68.5722 C258.6192,67.7522 262.3642,63.2272 262.3642,58.4292 L262.3642,7.8572 C262.3642,3.0582 258.6192,-0.1438 253.9632,0.6772 L238.1832,3.4602 C233.5282,4.2802 229.7812,8.8052 229.7812,13.6032 L229.7812,64.1742 Z M249.5362,10.3542 C250.8992,10.1142 251.6932,10.7942 251.6932,12.1982 L251.6932,57.8522 C251.6932,59.2572 250.8992,60.2172 249.5362,60.4562 L242.6112,61.6782 C241.2482,61.9182 240.4532,61.2382 240.4532,59.8342 L240.4532,14.1802 C240.4532,12.8912 241.1352,11.8362 242.6112,11.5762 L249.5362,10.3542 Z" id="Fill-4"></path>
                </g>
            </g>
        </g>
    </g>
</svg>