<?xml version="1.0" encoding="UTF-8" standalone="no"?>
<svg width="154px" height="129px" viewBox="0 0 154 129" version="1.1" xmlns="http://www.w3.org/2000/svg" xmlns:xlink="http://www.w3.org/1999/xlink">
    <!-- Generator: Sketch 41.2 (35397) - http://www.bohemiancoding.com/sketch -->
    <title>Artboard Copy 2</title>
    <desc>Created with Sketch.</desc>
    <defs></defs>
    <g id="Page-1" stroke="none" stroke-width="1" fill="none" fill-rule="evenodd">
        <g id="Artboard-Copy-2" fill="#009790">
            <path d="M106.866667,62.8666667 L79.1333333,62.8666667 L79.1333333,35.1333333 C79.1333333,33.9557333 78.1776,33 77,33 C75.8224,33 74.8666667,33.9557333 74.8666667,35.1333333 L74.8666667,62.8666667 L47.1333333,62.8666667 C45.9557333,62.8666667 45,63.8224 45,65 C45,66.1776 45.9557333,67.1333333 47.1333333,67.1333333 L74.8666667,67.1333333 L74.8666667,94.8666667 C74.8666667,96.0442667 75.8224,97 77,97 C78.1776,97 79.1333333,96.0442667 79.1333333,94.8666667 L79.1333333,67.1333333 L106.866667,67.1333333 C108.044267,67.1333333 109,66.1776 109,65 C109,63.8224 108.044267,62.8666667 106.866667,62.8666667" id="Page-1"></path>
        </g>
    </g>
</svg>