<?xml version="1.0" encoding="UTF-8" standalone="no"?>
<svg width="154px" height="129px" viewBox="0 0 154 129" version="1.1" xmlns="http://www.w3.org/2000/svg" xmlns:xlink="http://www.w3.org/1999/xlink">
    <!-- Generator: Sketch 41.2 (35397) - http://www.bohemiancoding.com/sketch -->
    <title>Artboard Copy</title>
    <desc>Created with Sketch.</desc>
    <defs>
        <polygon id="path-1" points="0 79.8542118 97.8539423 79.8542118 97.8539423 9.41176471e-05 0 9.41176471e-05"></polygon>
    </defs>
    <g id="Page-1" stroke="none" stroke-width="1" fill="none" fill-rule="evenodd">
        <g id="Artboard-Copy">
            <g id="Page-1" transform="translate(28.000000, 25.000000)">
                <mask id="mask-2" fill="white">
                    <use xlink:href="#path-1"></use>
                </mask>
                <g id="Clip-2"></g>
                <path d="M86.5947788,66.3266824 C82.6644135,66.3266824 79.4794135,63.1445647 79.4794135,59.2189176 C79.4794135,55.2942118 82.6644135,52.1120941 86.5947788,52.1120941 C90.5242019,52.1120941 93.7101442,55.2942118 93.7101442,59.2189176 C93.7101442,63.1445647 90.5242019,66.3266824 86.5947788,66.3266824 L86.5947788,66.3266824 Z M76.8475481,53.6895059 C76.7307019,53.8956235 76.6336442,54.1083294 76.5299904,54.3182118 L54.1954135,48.1845647 L61.7432981,38.9704471 L77.1396635,53.2302118 C77.0426058,53.3836235 76.9380096,53.5295059 76.8475481,53.6895059 L76.8475481,53.6895059 Z M75.3935673,59.1728 L45.2887212,64.6400941 C44.8430096,63.4692706 44.191875,62.3756235 43.3692404,61.3996235 L51.3515288,51.6556235 L75.4359712,58.2711529 C75.4114712,58.5713882 75.3945096,58.8716235 75.3935673,59.1728 L75.3935673,59.1728 Z M22.4198558,39.4560941 C22.656375,36.6043294 21.7941635,33.7469176 19.998125,31.5012706 L29.1432212,20.9064471 C29.1837404,20.9299765 29.2204904,20.9582118 29.2619519,20.9808 C30.9731827,21.9492706 32.8643942,22.4424471 34.7791635,22.4424471 C35.7855481,22.4424471 36.7985288,22.3059765 37.7954904,22.0302118 C39.1533558,21.6546824 40.3981442,21.0335059 41.496875,20.2184471 L58.7279135,36.1770353 L49.8664519,46.9949176 L22.4198558,39.4560941 Z M34.771625,4.11209412 C38.7010481,4.11209412 41.8869904,7.29421176 41.8869904,11.2189176 C41.8869904,15.1445647 38.7010481,18.3266824 34.771625,18.3266824 C30.8412596,18.3266824 27.6553173,15.1445647 27.6553173,11.2189176 C27.6553173,7.29421176 30.8412596,4.11209412 34.771625,4.11209412 L34.771625,4.11209412 Z M44.571625,16.7445647 C44.9457212,16.0848 45.2434904,15.4024471 45.4715288,14.7069176 L65.9865096,17.4400941 C66.0298558,18.2485647 66.1523558,19.0589176 66.3747404,19.8598588 C66.8138558,21.4457412 67.589375,22.8782118 68.6221442,24.0989176 L61.3315096,32.9986824 L44.2804519,17.2066824 C44.3775096,17.0523294 44.4821058,16.9036235 44.571625,16.7445647 L44.571625,16.7445647 Z M34.7678558,75.7422118 C30.8374904,75.7422118 27.6524904,72.5600941 27.6524904,68.6344471 C27.6524904,64.7097412 30.8374904,61.5276235 34.7678558,61.5276235 C38.6972788,61.5276235 41.8832212,64.7097412 41.8832212,68.6344471 C41.8832212,72.5600941 38.6972788,75.7422118 34.7678558,75.7422118 L34.7678558,75.7422118 Z M11.2601058,45.5643294 C7.32974038,45.5643294 4.14379808,42.3831529 4.14379808,38.4575059 C4.14379808,34.5328 7.32974038,31.3506824 11.2601058,31.3506824 C15.1895288,31.3506824 18.3754712,34.5328 18.3754712,38.4575059 C18.3754712,42.3831529 15.1895288,45.5643294 11.2601058,45.5643294 L11.2601058,45.5643294 Z M77.1717019,9.76291765 C81.101125,9.76291765 84.2870673,12.9450353 84.2870673,16.8697412 C84.2870673,20.7953882 81.101125,23.9775059 77.1717019,23.9775059 C73.2413365,23.9775059 70.0563365,20.7953882 70.0563365,16.8697412 C70.0563365,12.9450353 73.2413365,9.76291765 77.1717019,9.76291765 L77.1717019,9.76291765 Z M92.1562788,49.4532706 C88.1731442,47.2010353 83.3871635,47.6584471 79.9260673,50.2203294 L64.3468942,35.7911529 L71.7996058,26.6937412 C73.4769135,27.6123294 75.3172404,28.0895059 77.1830096,28.0895059 C78.1893942,28.0895059 79.202375,27.9530353 80.1993365,27.6772706 C83.0912788,26.8772706 85.4969904,24.9996235 86.9754712,22.3916235 C90.0266635,17.0090353 88.1241442,10.1497412 82.7332019,7.10032941 C77.3441442,4.0528 70.4756635,5.95397647 67.4244712,11.3365647 C67.0532019,11.9925647 66.7516635,12.6739765 66.5207981,13.3732706 L46.0011058,10.6410353 C45.8041635,6.94032941 43.7913942,3.41091765 40.3293558,1.45327059 C34.9402981,-1.59331765 28.0718173,0.306917647 25.020625,5.68950588 C23.5421442,8.29844706 23.1689904,11.3252706 23.9708942,14.2128 C24.383625,15.7045647 25.0894135,17.0617412 26.0307788,18.2335059 L16.8903942,28.8226824 C16.849875,28.7991529 16.813125,28.7709176 16.7716635,28.7473882 C11.3826058,25.6998588 4.514125,27.6010353 1.46293269,32.9836235 C-0.0155480769,35.5925647 -0.388701923,38.6193882 0.413201923,41.5069176 C1.21416346,44.3953882 3.093125,46.7991529 5.70425962,48.2749176 C7.41549038,49.2433882 9.30670192,49.7365647 11.2214712,49.7365647 C12.2278558,49.7365647 13.2408365,49.6000941 14.2377981,49.3243294 C17.1297404,48.5243294 19.5354519,46.6466824 21.0139327,44.0386824 C21.1307788,43.8325647 21.2268942,43.6198588 21.3296058,43.4099765 L47.0225673,50.4669176 L40.1974327,58.7991529 C34.8272212,55.8551529 28.0473173,57.7619765 25.020625,63.1012706 C23.5421442,65.7102118 23.1689904,68.7370353 23.9708942,71.6245647 C24.7718558,74.5130353 26.6508173,76.9168 29.2619519,78.3925647 C30.9731827,79.3610353 32.8643942,79.8542118 34.7791635,79.8542118 C35.7855481,79.8542118 36.7985288,79.7177412 37.7954904,79.4419765 C40.6874327,78.6419765 43.0931442,76.7643294 44.571625,74.1563294 C45.5544519,72.4236235 46.0161827,70.5375059 46.0199519,68.6739765 L76.1257404,63.2066824 C77.0520288,65.6509176 78.7839904,67.6782118 81.088875,68.9808 C82.8001058,69.9492706 84.6913173,70.4424471 86.6060865,70.4424471 C87.6124712,70.4424471 88.6254519,70.3059765 89.6224135,70.0302118 C92.5143558,69.2302118 94.9200673,67.3525647 96.3985481,64.7445647 C99.4497404,59.3619765 97.5472212,52.5026824 92.1562788,49.4532706 L92.1562788,49.4532706 Z" id="Fill-1" fill="#009790" mask="url(#mask-2)"></path>
            </g>
        </g>
    </g>
</svg>