<?xml version="1.0" encoding="UTF-8" standalone="no"?>
<svg width="211px" height="40px" viewBox="0 0 211 40" version="1.1" xmlns="http://www.w3.org/2000/svg" xmlns:xlink="http://www.w3.org/1999/xlink">
    <!-- Generator: Sketch 41.2 (35397) - http://www.bohemiancoding.com/sketch -->
    <title>Artboard 3</title>
    <desc>Created with Sketch.</desc>
    <defs>
        <polygon id="path-1" points="10.6264 0.988 0 0.988 0 22.9998 10.6264 22.9998 10.6264 0.988"></polygon>
        <polygon id="path-3" points="17.5397 0.988 0.1957 0.988 0.1957 22.9996 17.5397 22.9996 17.5397 0.988"></polygon>
        <polygon id="path-5" points="11.1776 0.988 0.5516 0.988 0.5516 22.9998 11.1776 22.9998 11.1776 0.988"></polygon>
        <polygon id="path-7" points="8.6271 0.988 0.1261 0.988 0.1261 22.9999 8.6271 22.9999"></polygon>
        <polygon id="path-9" points="10.8642 0.988 0.2762 0.988 0.2762 22.9997 10.8642 22.9997 10.8642 0.988"></polygon>
        <polygon id="path-11" points="11.412 22.9993 11.412 0.9883 0.5194 0.9883 0.5194 22.9993 11.412 22.9993"></polygon>
    </defs>
    <g id="Page-1" stroke="none" stroke-width="1" fill="none" fill-rule="evenodd">
        <g id="Artboard-3">
            <g id="Page-1" transform="translate(13.000000, 8.000000)">
                <g id="Group-3" transform="translate(0.000000, 0.011700)">
                    <mask id="mask-2" fill="white">
                        <use xlink:href="#path-1"></use>
                    </mask>
                    <g id="Clip-2"></g>
                    <path d="M2.8084,22.9998 C1.2524,22.9998 -0.0006,21.7478 -0.0006,20.1918 L-0.0006,17.4208 C-0.0006,16.9658 0.2664,16.6998 0.7214,16.6998 L2.8464,16.6998 C3.3024,16.6998 3.5674,16.9658 3.5674,17.4208 L3.5674,19.3948 C3.5674,19.8118 3.7954,20.1158 4.2884,20.1158 L6.3004,20.1158 C6.7554,20.1158 7.0214,19.8498 7.0214,19.3948 L7.0214,14.0818 C7.0214,13.6638 6.7934,13.3608 6.3004,13.3608 L3.0364,13.3608 C1.4804,13.3608 0.2274,12.1078 0.2274,10.5518 L0.2274,3.7968 C0.2274,2.2408 1.4804,0.9878 3.0364,0.9878 L7.8184,0.9878 C9.3744,0.9878 10.6264,2.2408 10.6264,3.7968 L10.6264,6.5668 C10.6264,7.0218 10.3614,7.2888 9.9054,7.2888 L7.7804,7.2888 C7.3254,7.2888 7.0594,7.0218 7.0594,6.5668 L7.0594,4.5938 C7.0594,4.1758 6.8314,3.8728 6.3384,3.8728 L4.5164,3.8728 C4.0224,3.8728 3.7954,4.1758 3.7954,4.5938 L3.7954,9.1478 C3.7954,9.6038 4.0604,9.8688 4.5164,9.8688 L7.7804,9.8688 C9.3364,9.8688 10.5884,11.1218 10.5884,12.6768 L10.5884,20.1918 C10.5884,21.7478 9.3364,22.9998 7.7804,22.9998 L2.8084,22.9998 Z" id="Fill-1" fill="#FFFFFF" mask="url(#mask-2)"></path>
                </g>
                <path d="M15.9383,0.9997 C16.3943,0.9997 16.6593,1.2657 16.6593,1.7207 L16.6593,22.2907 C16.6593,22.7467 16.3943,23.0117 15.9383,23.0117 L13.8133,23.0117 C13.3573,23.0117 13.0923,22.7467 13.0923,22.2907 L13.0923,1.7207 C13.0923,1.2657 13.3573,0.9997 13.8133,0.9997 L15.9383,0.9997 Z" id="Fill-4" fill="#FFFFFF"></path>
                <path d="M23.6038,3.884 C23.1098,3.884 22.8828,4.188 22.8828,4.605 L22.8828,19.406 C22.8828,19.862 23.1478,20.127 23.6038,20.127 L25.9188,20.127 C26.3748,20.127 26.6398,19.862 26.6398,19.406 L26.6398,14.245 L25.3118,14.245 C24.8558,14.245 24.5908,13.979 24.5908,13.524 L24.5908,12.082 C24.5908,11.626 24.8558,11.361 25.3118,11.361 L30.2078,11.361 L30.2078,20.203 C30.2078,21.759 28.9548,23.011 27.3988,23.011 L22.1238,23.011 C20.5678,23.011 19.3148,21.759 19.3148,20.203 L19.3148,3.808 C19.3148,2.252 20.5678,1 22.1238,1 L27.2468,1 C28.8028,1 30.0558,2.252 30.0558,3.808 L30.0558,6.465 C30.0558,6.921 29.7898,7.186 29.3338,7.186 L27.2088,7.186 C26.7538,7.186 26.4878,6.921 26.4878,6.465 L26.4878,4.605 C26.4878,4.188 26.2608,3.884 25.7668,3.884 L23.6038,3.884 Z" id="Fill-6" fill="#FFFFFF"></path>
                <path d="M35.9749,14.5867 L39.0869,14.5867 L37.8719,3.8837 L37.2269,3.8837 L35.9749,14.5867 Z M43.6029,22.2907 C43.6409,22.7467 43.3749,23.0117 42.9199,23.0117 L40.7569,23.0117 C40.3019,23.0117 40.0359,22.7467 39.9969,22.2907 L39.4289,17.5467 L35.6329,17.5467 L35.1019,22.2907 C35.0639,22.7467 34.8359,23.0117 34.3809,23.0117 L32.1799,23.0117 C31.7249,23.0117 31.4589,22.7467 31.4959,22.2907 L33.8499,3.8087 C34.0389,2.2527 35.1019,0.9997 36.6579,0.9997 L38.4419,0.9997 C39.9969,0.9997 41.0599,2.2527 41.2499,3.8087 L43.6029,22.2907 Z" id="Fill-8" fill="#FFFFFF"></path>
                <g id="Group-12" transform="translate(45.000000, 0.011700)">
                    <mask id="mask-4" fill="white">
                        <use xlink:href="#path-3"></use>
                    </mask>
                    <g id="Clip-11"></g>
                    <path d="M3.8767,7.6296 L3.4217,3.8346 L3.2317,3.8346 L3.4597,22.2786 C3.4597,22.7346 3.1937,22.9996 2.7377,22.9996 L0.9167,22.9996 C0.4607,22.9996 0.1957,22.7346 0.1957,22.2786 L0.1957,1.7096 C0.1957,1.2536 0.4607,0.9876 0.9167,0.9876 L5.5847,0.9876 C6.0397,0.9876 6.2297,1.2536 6.3057,1.7096 L8.4307,15.8646 L8.8107,19.8876 L8.9997,19.8876 L9.3797,15.8646 L11.5047,1.7096 C11.5807,1.2536 11.7707,0.9876 12.2257,0.9876 L16.8177,0.9876 C17.2737,0.9876 17.5397,1.2536 17.5397,1.7096 L17.5397,22.2786 C17.5397,22.7346 17.2737,22.9996 16.8177,22.9996 L14.9207,22.9996 C14.4647,22.9996 14.1997,22.7346 14.1997,22.2786 L14.4267,3.8346 L14.2377,3.8346 L13.7817,7.6296 L11.6947,22.2786 C11.6187,22.7346 11.4287,22.9996 10.9737,22.9996 L6.6847,22.9996 C6.2297,22.9996 6.0397,22.7346 5.9637,22.2786 L3.8767,7.6296 Z" id="Fill-10" fill="#FFFFFF" mask="url(#mask-4)"></path>
                </g>
                <path d="M69.4822,3.884 C68.9892,3.884 68.7612,4.188 68.7612,4.605 L68.7612,19.406 C68.7612,19.862 69.0272,20.127 69.4822,20.127 L71.7972,20.127 C72.2532,20.127 72.5182,19.862 72.5182,19.406 L72.5182,4.605 C72.5182,4.15 72.2532,3.884 71.7972,3.884 L69.4822,3.884 Z M65.1942,3.808 C65.1942,2.252 66.4462,1 68.0022,1 L73.2782,1 C74.8342,1 76.0862,2.252 76.0862,3.808 L76.0862,20.203 C76.0862,21.759 74.8342,23.011 73.2782,23.011 L68.0022,23.011 C66.4462,23.011 65.1942,21.759 65.1942,20.203 L65.1942,3.808 Z" id="Fill-13" fill="#FFFFFF"></path>
                <g id="Group-17" transform="translate(78.000000, 0.011700)">
                    <mask id="mask-6" fill="white">
                        <use xlink:href="#path-5"></use>
                    </mask>
                    <g id="Clip-16"></g>
                    <path d="M3.3596,22.9998 C1.8036,22.9998 0.5516,21.7478 0.5516,20.1918 L0.5516,17.4208 C0.5516,16.9658 0.8176,16.6998 1.2726,16.6998 L3.3976,16.6998 C3.8536,16.6998 4.1186,16.9658 4.1186,17.4208 L4.1186,19.3948 C4.1186,19.8118 4.3466,20.1158 4.8396,20.1158 L6.8516,20.1158 C7.3066,20.1158 7.5726,19.8498 7.5726,19.3948 L7.5726,14.0818 C7.5726,13.6638 7.3446,13.3608 6.8516,13.3608 L3.5876,13.3608 C2.0316,13.3608 0.7786,12.1078 0.7786,10.5518 L0.7786,3.7968 C0.7786,2.2408 2.0316,0.9878 3.5876,0.9878 L8.3696,0.9878 C9.9256,0.9878 11.1776,2.2408 11.1776,3.7968 L11.1776,6.5668 C11.1776,7.0218 10.9126,7.2888 10.4566,7.2888 L8.3316,7.2888 C7.8766,7.2888 7.6106,7.0218 7.6106,6.5668 L7.6106,4.5938 C7.6106,4.1758 7.3826,3.8728 6.8896,3.8728 L5.0676,3.8728 C4.5736,3.8728 4.3466,4.1758 4.3466,4.5938 L4.3466,9.1478 C4.3466,9.6038 4.6126,9.8688 5.0676,9.8688 L8.3316,9.8688 C9.8876,9.8688 11.1396,11.1218 11.1396,12.6768 L11.1396,20.1918 C11.1396,21.7478 9.8876,22.9998 8.3316,22.9998 L3.3596,22.9998 Z" id="Fill-15" fill="#FFFFFF" mask="url(#mask-6)"></path>
                </g>
                <path d="M102.0032,3.884 C101.5092,3.884 101.2822,4.188 101.2822,4.605 L101.2822,19.406 C101.2822,19.862 101.5472,20.127 102.0032,20.127 L104.3182,20.127 C104.8112,20.127 105.0392,19.824 105.0392,19.406 L105.0392,17.053 C105.0392,16.598 105.3052,16.332 105.7602,16.332 L107.8852,16.332 C108.3402,16.332 108.6072,16.598 108.6072,17.053 L108.6072,20.203 C108.6072,21.759 107.3542,23.011 105.7982,23.011 L100.5232,23.011 C98.9672,23.011 97.7142,21.759 97.7142,20.203 L97.7142,3.808 C97.7142,2.252 98.9672,1 100.5232,1 L105.6462,1 C107.2022,1 108.4552,2.252 108.4552,3.808 L108.4552,6.958 C108.4552,7.414 108.1892,7.679 107.7332,7.679 L105.6082,7.679 C105.1532,7.679 104.8872,7.414 104.8872,6.958 L104.8872,4.605 C104.8872,4.188 104.6592,3.884 104.1662,3.884 L102.0032,3.884 Z" id="Fill-18" fill="#FFFFFF"></path>
                <path d="M117.9031,4.6052 C117.9031,4.1112 117.5991,3.8842 117.1821,3.8842 L114.4491,3.8842 L114.4491,11.6642 L117.1821,11.6642 C117.6371,11.6642 117.9031,11.3982 117.9031,10.9432 L117.9031,4.6052 Z M121.4701,11.7402 C121.4701,13.1442 120.4461,14.2832 119.1171,14.5102 L122.0021,22.2912 C122.1531,22.7082 121.8881,23.0112 121.4321,23.0112 L119.2691,23.0112 C118.8141,23.0112 118.5481,22.7082 118.3961,22.2912 L115.7021,14.5482 L114.4491,14.5482 L114.4491,22.2912 C114.4491,22.7462 114.1841,23.0112 113.7281,23.0112 L111.6031,23.0112 C111.1481,23.0112 110.8821,22.7462 110.8821,22.2912 L110.8821,1.0002 L118.6621,1.0002 C120.2181,1.0002 121.4701,2.2522 121.4701,3.8082 L121.4701,11.7402 Z" id="Fill-20" fill="#FFFFFF"></path>
                <g id="Group-24" transform="translate(124.000000, 0.011700)">
                    <mask id="mask-8" fill="white">
                        <use xlink:href="#path-7"></use>
                    </mask>
                    <g id="Clip-23"></g>
                    <path d="M3.6931,12.8289 L3.6931,20.1159 L7.9061,20.1159 C8.3611,20.1159 8.6271,20.3809 8.6271,20.8369 L8.6271,22.2789 C8.6271,22.7349 8.3611,22.9999 7.9061,22.9999 L0.1261,22.9999 L0.1261,0.9879 L7.7161,0.9879 C8.1721,0.9879 8.4371,1.2539 8.4371,1.7089 L8.4371,3.1519 C8.4371,3.6069 8.1721,3.8719 7.7161,3.8719 L3.6931,3.8719 L3.6931,9.9449 L7.0331,9.9449 C7.4881,9.9449 7.7541,10.2109 7.7541,10.6659 L7.7541,12.1079 C7.7541,12.5629 7.4881,12.8289 7.0331,12.8289 L3.6931,12.8289 Z" id="Fill-22" fill="#FFFFFF" mask="url(#mask-8)"></path>
                </g>
                <path d="M138.053,14.5867 L141.165,14.5867 L139.951,3.8837 L139.305,3.8837 L138.053,14.5867 Z M145.681,22.2907 C145.719,22.7467 145.453,23.0117 144.998,23.0117 L142.835,23.0117 C142.38,23.0117 142.114,22.7467 142.076,22.2907 L141.507,17.5467 L137.711,17.5467 L137.18,22.2907 C137.142,22.7467 136.915,23.0117 136.459,23.0117 L134.258,23.0117 C133.803,23.0117 133.537,22.7467 133.575,22.2907 L135.928,3.8087 C136.117,2.2527 137.18,0.9997 138.736,0.9997 L140.52,0.9997 C142.076,0.9997 143.138,2.2527 143.328,3.8087 L145.681,22.2907 Z" id="Fill-25" fill="#FFFFFF"></path>
                <path d="M152.5872,0.9997 C153.0422,0.9997 153.2322,1.2657 153.3082,1.7207 L155.1292,15.8767 L155.5092,19.8997 L155.6992,19.8617 L155.4332,1.7207 C155.4332,1.2657 155.6992,0.9997 156.1542,0.9997 L157.9002,0.9997 C158.3552,0.9997 158.6212,1.2657 158.6212,1.7207 L158.5452,22.2907 C158.5452,22.7467 158.2792,23.0117 157.8242,23.0117 L153.3082,23.0117 C152.8532,23.0117 152.6632,22.7467 152.5872,22.2907 L150.7272,7.6417 L150.4232,3.8457 L150.2332,3.8457 L150.4622,22.2907 C150.4622,22.7467 150.1962,23.0117 149.7402,23.0117 L147.9952,23.0117 C147.5392,23.0117 147.2742,22.7467 147.2742,22.2907 L147.2742,1.7207 C147.2742,1.2657 147.5392,0.9997 147.9952,0.9997 L152.5872,0.9997 Z" id="Fill-27" fill="#FFFFFF"></path>
                <g id="Group-31" transform="translate(161.000000, 0.011700)">
                    <mask id="mask-10" fill="white">
                        <use xlink:href="#path-9"></use>
                    </mask>
                    <g id="Clip-30"></g>
                    <path d="M5.6272,4.4417 C5.5132,4.0627 5.2102,3.8727 4.8682,3.8727 L3.8432,3.8727 L3.8432,20.1157 L6.5762,20.1157 C7.0312,20.1157 7.2972,19.8497 7.2972,19.3947 L7.2972,10.4767 C7.2972,10.0967 7.2592,9.7547 7.1452,9.3757 L5.6272,4.4417 Z M10.2952,7.6677 C10.6752,8.7687 10.8642,10.0967 10.8642,11.3117 L10.8642,20.1917 C10.8642,21.7477 9.6122,22.9997 8.0562,22.9997 L0.2762,22.9997 L0.2762,0.9877 L5.7792,0.9877 C7.5632,0.9877 8.3982,1.9377 8.8912,3.4177 L10.2952,7.6677 Z" id="Fill-29" fill="#FFFFFF" mask="url(#mask-10)"></path>
                </g>
                <g id="Group-34" transform="translate(174.000000, 0.011700)">
                    <mask id="mask-12" fill="white">
                        <use xlink:href="#path-11"></use>
                    </mask>
                    <g id="Clip-33"></g>
                    <path d="M4.8084,3.8723 C4.3154,3.8723 4.0874,4.1763 4.0874,4.5933 L4.0874,19.3943 C4.0874,19.8503 4.3534,20.1153 4.8084,20.1153 L7.1234,20.1153 C7.5794,20.1153 7.8444,19.8503 7.8444,19.3943 L7.8444,4.5933 C7.8444,4.1383 7.5794,3.8723 7.1234,3.8723 L4.8084,3.8723 Z M0.5194,3.7963 C0.5194,2.2403 1.7724,0.9883 3.3284,0.9883 L8.6034,0.9883 C10.1594,0.9883 11.4124,2.2403 11.4124,3.7963 L11.4124,20.1913 C11.4124,21.7473 10.1594,22.9993 8.6034,22.9993 L3.3284,22.9993 C1.7724,22.9993 0.5194,21.7473 0.5194,20.1913 L0.5194,3.7963 Z" id="Fill-32" fill="#FFFFFF" mask="url(#mask-12)"></path>
                </g>
            </g>
        </g>
    </g>
</svg>