<?xml version="1.0" encoding="UTF-8" standalone="no"?>
<svg width="320px" height="60px" viewBox="0 0 320 60" version="1.1" xmlns="http://www.w3.org/2000/svg" xmlns:xlink="http://www.w3.org/1999/xlink">
    <!-- Generator: Sketch 41.2 (35397) - http://www.bohemiancoding.com/sketch -->
    <title>Artboard 3</title>
    <desc>Created with Sketch.</desc>
    <defs>
        <polygon id="path-1" points="18.0534538 0.637368421 0 0.637368421 0 38.2891316 18.0534538 38.2891316 18.0534538 0.637368421"></polygon>
        <polygon id="path-3" points="29.7986301 0.637368421 0.33247957 0.637368421 0.33247957 38.2887895 29.7986301 38.2887895 29.7986301 0.637368421"></polygon>
        <polygon id="path-5" points="18.9899011 0.637368421 0.937126882 0.637368421 0.937126882 38.2891316 18.9899011 38.2891316 18.9899011 0.637368421"></polygon>
        <polygon id="path-7" points="14.6567935 0.637368421 0.214234409 0.637368421 0.214234409 38.2893026 14.6567935 38.2893026"></polygon>
        <polygon id="path-9" points="18.4574581 0.637368421 0.469243011 0.637368421 0.469243011 38.2889605 18.4574581 38.2889605 18.4574581 0.637368421"></polygon>
        <polygon id="path-11" points="19.388129 38.2882763 19.388129 0.637881579 0.882421505 0.637881579 0.882421505 38.2882763 19.388129 38.2882763"></polygon>
    </defs>
    <g id="Page-1" stroke="none" stroke-width="1" fill="none" fill-rule="evenodd">
        <g id="Artboard-3">
            <g id="Page-1" transform="translate(2.000000, 10.000000)">
                <g id="Group-3" transform="translate(0.000000, 0.020013)">
                    <mask id="mask-2" fill="white">
                        <use xlink:href="#path-1"></use>
                    </mask>
                    <g id="Clip-2"></g>
                    <path d="M4.77126022,38.2891316 C2.12773333,38.2891316 -0.00101935484,36.1475526 -0.00101935484,33.4859737 L-0.00101935484,28.7461053 C-0.00101935484,27.9678158 0.452593548,27.5128158 1.2256043,27.5128158 L4.83581935,27.5128158 C5.61052903,27.5128158 6.06074409,27.9678158 6.06074409,28.7461053 L6.06074409,32.1226842 C6.06074409,32.8359737 6.44809892,33.3559737 7.28566882,33.3559737 L10.7039054,33.3559737 C11.4769161,33.3559737 11.9288301,32.9009737 11.9288301,32.1226842 L11.9288301,23.0346579 C11.9288301,22.3196579 11.5414753,21.8013684 10.7039054,21.8013684 L5.15861505,21.8013684 C2.51508817,21.8013684 0.386335484,19.6580789 0.386335484,16.9965 L0.386335484,5.44189474 C0.386335484,2.78031579 2.51508817,0.637026316 5.15861505,0.637026316 L13.2828731,0.637026316 C15.9264,0.637026316 18.0534538,2.78031579 18.0534538,5.44189474 L18.0534538,10.1800526 C18.0534538,10.9583421 17.6032387,11.4150526 16.828529,11.4150526 L13.218314,11.4150526 C12.4453032,11.4150526 11.9933892,10.9583421 11.9933892,10.1800526 L11.9933892,6.80518421 C11.9933892,6.09018421 11.6060344,5.57189474 10.7684645,5.57189474 L7.67302366,5.57189474 C6.83375484,5.57189474 6.44809892,6.09018421 6.44809892,6.80518421 L6.44809892,14.5949211 C6.44809892,15.3749211 6.89831398,15.8282105 7.67302366,15.8282105 L13.218314,15.8282105 C15.8618409,15.8282105 17.9888946,17.9715 17.9888946,20.6313684 L17.9888946,33.4859737 C17.9888946,36.1475526 15.8618409,38.2891316 13.218314,38.2891316 L4.77126022,38.2891316 Z" id="Fill-1" fill="#FFFFFF" mask="url(#mask-2)"></path>
                </g>
                <path d="M27.077972,0.657381579 C27.8526817,0.657381579 28.3028968,1.11238158 28.3028968,1.89067105 L28.3028968,37.0761974 C28.3028968,37.8561974 27.8526817,38.3094868 27.077972,38.3094868 L23.467757,38.3094868 C22.6930473,38.3094868 22.2428323,37.8561974 22.2428323,37.0761974 L22.2428323,1.89067105 C22.2428323,1.11238158 22.6930473,0.657381579 23.467757,0.657381579 L27.077972,0.657381579 Z" id="Fill-4" fill="#FFFFFF"></path>
                <path d="M40.1010796,5.59105263 C39.2618108,5.59105263 38.8761548,6.11105263 38.8761548,6.82434211 L38.8761548,32.1418421 C38.8761548,32.9218421 39.3263699,33.3751316 40.1010796,33.3751316 L44.0340903,33.3751316 C44.8088,33.3751316 45.2590151,32.9218421 45.2590151,32.1418421 L45.2590151,23.3138158 L43.002843,23.3138158 C42.2281333,23.3138158 41.7779183,22.8588158 41.7779183,22.0805263 L41.7779183,19.6139474 C41.7779183,18.8339474 42.2281333,18.3806579 43.002843,18.3806579 L51.3207785,18.3806579 L51.3207785,33.5051316 C51.3207785,36.1667105 49.1920258,38.3082895 46.5484989,38.3082895 L37.586671,38.3082895 C34.9431441,38.3082895 32.8143914,36.1667105 32.8143914,33.5051316 L32.8143914,5.46105263 C32.8143914,2.79947368 34.9431441,0.657894737 37.586671,0.657894737 L46.2902624,0.657894737 C48.9337892,0.657894737 51.0625419,2.79947368 51.0625419,5.46105263 L51.0625419,10.0059211 C51.0625419,10.7859211 50.610628,11.2392105 49.8359183,11.2392105 L46.2257032,11.2392105 C45.4526925,11.2392105 45.0007785,10.7859211 45.0007785,10.0059211 L45.0007785,6.82434211 C45.0007785,6.11105263 44.6151226,5.59105263 43.7758538,5.59105263 L40.1010796,5.59105263 Z" id="Fill-6" fill="#FFFFFF"></path>
                <path d="M61.1186473,23.8983026 L66.4057011,23.8983026 L64.3415075,5.59053947 L63.2457011,5.59053947 L61.1186473,23.8983026 Z M74.0780452,37.0761974 C74.1426043,37.8561974 73.6906903,38.3094868 72.9176796,38.3094868 L69.2429054,38.3094868 C68.4698946,38.3094868 68.0179806,37.8561974 67.9517226,37.0761974 L66.9867333,28.9614605 L60.5376151,28.9614605 L59.635486,37.0761974 C59.5709269,37.8561974 59.183572,38.3094868 58.4105613,38.3094868 L54.671228,38.3094868 C53.8982172,38.3094868 53.4463032,37.8561974 53.5091634,37.0761974 L57.5084323,5.46225 C57.829529,2.80067105 59.635486,0.657381579 62.2790129,0.657381579 L65.3098946,0.657381579 C67.9517226,0.657381579 69.7576796,2.80067105 70.0804753,5.46225 L74.0780452,37.0761974 Z" id="Fill-8" fill="#FFFFFF"></path>
                <g id="Group-12" transform="translate(76.451613, 0.020013)">
                    <mask id="mask-4" fill="white">
                        <use xlink:href="#path-3"></use>
                    </mask>
                    <g id="Clip-11"></g>
                    <path d="M6.58622151,11.998 L5.81321075,5.50655263 L5.49041505,5.50655263 L5.87776989,37.0555 C5.87776989,37.8355 5.42585591,38.2887895 4.65114624,38.2887895 L1.5574043,38.2887895 C0.782694624,38.2887895 0.33247957,37.8355 0.33247957,37.0555 L0.33247957,1.87168421 C0.33247957,1.09168421 0.782694624,0.636684211 1.5574043,0.636684211 L9.48798495,0.636684211 C10.2609957,0.636684211 10.5837914,1.09168421 10.7129097,1.87168421 L14.3231247,26.0841842 L14.9687161,32.9656316 L15.2898129,32.9656316 L15.9354043,26.0841842 L19.5456194,1.87168421 C19.6747376,1.09168421 19.9975333,0.636684211 20.7705441,0.636684211 L28.5720065,0.636684211 C29.3467161,0.636684211 29.7986301,1.09168421 29.7986301,1.87168421 L29.7986301,37.0555 C29.7986301,37.8355 29.3467161,38.2887895 28.5720065,38.2887895 L25.3491462,38.2887895 C24.5744366,38.2887895 24.1242215,37.8355 24.1242215,37.0555 L24.5098774,5.50655263 L24.1887806,5.50655263 L23.414071,11.998 L19.8684151,37.0555 C19.7392968,37.8355 19.4165011,38.2887895 18.6434903,38.2887895 L11.3568022,38.2887895 C10.5837914,38.2887895 10.2609957,37.8355 10.1318774,37.0555 L6.58622151,11.998 Z" id="Fill-10" fill="#FFFFFF" mask="url(#mask-4)"></path>
                </g>
                <path d="M118.045028,5.59105263 C117.207458,5.59105263 116.820103,6.11105263 116.820103,6.82434211 L116.820103,32.1418421 C116.820103,32.9218421 117.272017,33.3751316 118.045028,33.3751316 L121.978039,33.3751316 C122.752748,33.3751316 123.202963,32.9218421 123.202963,32.1418421 L123.202963,6.82434211 C123.202963,6.04605263 122.752748,5.59105263 121.978039,5.59105263 L118.045028,5.59105263 Z M110.760039,5.46105263 C110.760039,2.79947368 112.887092,0.657894737 115.530619,0.657894737 L124.494146,0.657894737 C127.137673,0.657894737 129.264727,2.79947368 129.264727,5.46105263 L129.264727,33.5051316 C129.264727,36.1667105 127.137673,38.3082895 124.494146,38.3082895 L115.530619,38.3082895 C112.887092,38.3082895 110.760039,36.1667105 110.760039,33.5051316 L110.760039,5.46105263 Z" id="Fill-13" fill="#FFFFFF"></path>
                <g id="Group-17" transform="translate(132.516129, 0.020013)">
                    <mask id="mask-6" fill="white">
                        <use xlink:href="#path-5"></use>
                    </mask>
                    <g id="Clip-16"></g>
                    <path d="M5.70770753,38.2891316 C3.06418065,38.2891316 0.937126882,36.1475526 0.937126882,33.4859737 L0.937126882,28.7461053 C0.937126882,27.9678158 1.38904086,27.5128158 2.16205161,27.5128158 L5.77226667,27.5128158 C6.54697634,27.5128158 6.9971914,27.9678158 6.9971914,28.7461053 L6.9971914,32.1226842 C6.9971914,32.8359737 7.38454624,33.3559737 8.22211613,33.3559737 L11.6403527,33.3559737 C12.4133634,33.3559737 12.8652774,32.9009737 12.8652774,32.1226842 L12.8652774,23.0346579 C12.8652774,22.3196579 12.4779226,21.8013684 11.6403527,21.8013684 L6.09506237,21.8013684 C3.45153548,21.8013684 1.3227828,19.6580789 1.3227828,16.9965 L1.3227828,5.44189474 C1.3227828,2.78031579 3.45153548,0.637026316 6.09506237,0.637026316 L14.2193204,0.637026316 C16.8628473,0.637026316 18.9899011,2.78031579 18.9899011,5.44189474 L18.9899011,10.1800526 C18.9899011,10.9583421 18.539686,11.4150526 17.7649763,11.4150526 L14.1547613,11.4150526 C13.3817505,11.4150526 12.9298366,10.9583421 12.9298366,10.1800526 L12.9298366,6.80518421 C12.9298366,6.09018421 12.5424817,5.57189474 11.7049118,5.57189474 L8.60947097,5.57189474 C7.77020215,5.57189474 7.38454624,6.09018421 7.38454624,6.80518421 L7.38454624,14.5949211 C7.38454624,15.3749211 7.83646022,15.8282105 8.60947097,15.8282105 L14.1547613,15.8282105 C16.7982882,15.8282105 18.9253419,17.9715 18.9253419,20.6313684 L18.9253419,33.4859737 C18.9253419,36.1475526 16.7982882,38.2891316 14.1547613,38.2891316 L5.70770753,38.2891316 Z" id="Fill-15" fill="#FFFFFF" mask="url(#mask-6)"></path>
                </g>
                <path d="M173.295759,5.59105263 C172.45649,5.59105263 172.070834,6.11105263 172.070834,6.82434211 L172.070834,32.1418421 C172.070834,32.9218421 172.521049,33.3751316 173.295759,33.3751316 L177.22877,33.3751316 C178.06634,33.3751316 178.453695,32.8568421 178.453695,32.1418421 L178.453695,28.1169737 C178.453695,27.3386842 178.905609,26.8836842 179.678619,26.8836842 L183.288834,26.8836842 C184.061845,26.8836842 184.515458,27.3386842 184.515458,28.1169737 L184.515458,33.5051316 C184.515458,36.1667105 182.386705,38.3082895 179.743178,38.3082895 L170.781351,38.3082895 C168.137824,38.3082895 166.009071,36.1667105 166.009071,33.5051316 L166.009071,5.46105263 C166.009071,2.79947368 168.137824,0.657894737 170.781351,0.657894737 L179.484942,0.657894737 C182.128469,0.657894737 184.257222,2.79947368 184.257222,5.46105263 L184.257222,10.8492105 C184.257222,11.6292105 183.805308,12.0825 183.030598,12.0825 L179.420383,12.0825 C178.647372,12.0825 178.195458,11.6292105 178.195458,10.8492105 L178.195458,6.82434211 C178.195458,6.11105263 177.808103,5.59105263 176.970533,5.59105263 L173.295759,5.59105263 Z" id="Fill-18" fill="#FFFFFF"></path>
                <path d="M200.308492,6.82468421 C200.308492,5.97968421 199.792019,5.59139474 199.083568,5.59139474 L194.440406,5.59139474 L194.440406,18.8992895 L199.083568,18.8992895 C199.856578,18.8992895 200.308492,18.4442895 200.308492,17.666 L200.308492,6.82468421 Z M206.368557,19.0292895 C206.368557,21.4308684 204.628858,23.3791579 202.370987,23.7674474 L207.272385,37.0770526 C207.528923,37.7903421 207.078708,38.3086316 206.303998,38.3086316 L202.629224,38.3086316 C201.856213,38.3086316 201.404299,37.7903421 201.146062,37.0770526 L196.569159,23.8324474 L194.440406,23.8324474 L194.440406,37.0770526 C194.440406,37.8553421 193.990191,38.3086316 193.215482,38.3086316 L189.605267,38.3086316 C188.832256,38.3086316 188.380342,37.8553421 188.380342,37.0770526 L188.380342,0.658236842 L201.597976,0.658236842 C204.241503,0.658236842 206.368557,2.79981579 206.368557,5.46139474 L206.368557,19.0292895 Z" id="Fill-20" fill="#FFFFFF"></path>
                <g id="Group-24" transform="translate(210.666667, 0.020013)">
                    <mask id="mask-8" fill="white">
                        <use xlink:href="#path-7"></use>
                    </mask>
                    <g id="Clip-23"></g>
                    <path d="M6.27429892,20.8915395 L6.27429892,33.3561447 L13.4318688,33.3561447 C14.2048796,33.3561447 14.6567935,33.8094342 14.6567935,34.5894342 L14.6567935,37.0560132 C14.6567935,37.8360132 14.2048796,38.2893026 13.4318688,38.2893026 L0.214234409,38.2893026 L0.214234409,0.637197368 L13.1090731,0.637197368 C13.8837828,0.637197368 14.3339978,1.09219737 14.3339978,1.87048684 L14.3339978,4.33877632 C14.3339978,5.11706579 13.8837828,5.57035526 13.1090731,5.57035526 L6.27429892,5.57035526 L6.27429892,15.9583816 L11.9487075,15.9583816 C12.7217183,15.9583816 13.1736323,16.4133816 13.1736323,17.1916711 L13.1736323,19.65825 C13.1736323,20.4365395 12.7217183,20.8915395 11.9487075,20.8915395 L6.27429892,20.8915395 Z" id="Fill-22" fill="#FFFFFF" mask="url(#mask-8)"></path>
                </g>
                <path d="M234.541656,23.8983026 L239.82871,23.8983026 L237.766215,5.59053947 L236.66871,5.59053947 L234.541656,23.8983026 Z M247.501054,37.0761974 C247.565613,37.8561974 247.113699,38.3094868 246.340688,38.3094868 L242.665914,38.3094868 C241.892903,38.3094868 241.440989,37.8561974 241.37643,37.0761974 L240.409742,28.9614605 L233.960624,28.9614605 L233.058495,37.0761974 C232.993935,37.8561974 232.60828,38.3094868 231.83357,38.3094868 L228.094237,38.3094868 C227.321226,38.3094868 226.869312,37.8561974 226.933871,37.0761974 L230.931441,5.46225 C231.252538,2.80067105 233.058495,0.657381579 235.702022,0.657381579 L238.732903,0.657381579 C241.37643,0.657381579 243.180688,2.80067105 243.503484,5.46225 L247.501054,37.0761974 Z" id="Fill-25" fill="#FFFFFF"></path>
                <path d="M259.234168,0.657381579 C260.007178,0.657381579 260.329974,1.11238158 260.459092,1.89067105 L263.552834,26.1048816 L264.198426,32.9863289 L264.521222,32.9213289 L264.069308,1.89067105 C264.069308,1.11238158 264.521222,0.657381579 265.294232,0.657381579 L268.260555,0.657381579 C269.033566,0.657381579 269.48548,1.11238158 269.48548,1.89067105 L269.356361,37.0761974 C269.356361,37.8561974 268.904447,38.3094868 268.131437,38.3094868 L260.459092,38.3094868 C259.686082,38.3094868 259.363286,37.8561974 259.234168,37.0761974 L256.074168,12.0186974 L255.557695,5.52553947 L255.234899,5.52553947 L255.623953,37.0761974 C255.623953,37.8561974 255.172039,38.3094868 254.397329,38.3094868 L251.432705,38.3094868 C250.657996,38.3094868 250.207781,37.8561974 250.207781,37.0761974 L250.207781,1.89067105 C250.207781,1.11238158 250.657996,0.657381579 251.432705,0.657381579 L259.234168,0.657381579 Z" id="Fill-27" fill="#FFFFFF"></path>
                <g id="Group-31" transform="translate(273.526882, 0.020013)">
                    <mask id="mask-10" fill="white">
                        <use xlink:href="#path-9"></use>
                    </mask>
                    <g id="Clip-30"></g>
                    <path d="M9.56018925,6.54501316 C9.36651183,5.89672368 8.85173763,5.57172368 8.27070538,5.57172368 L6.52930753,5.57172368 L6.52930753,33.3558026 L11.1724688,33.3558026 C11.9454796,33.3558026 12.3973935,32.9008026 12.3973935,32.1225132 L12.3973935,16.8680395 C12.3973935,16.2180395 12.3328344,15.6330395 12.139157,14.98475 L9.56018925,6.54501316 Z M17.4907699,12.0631711 C18.1363613,13.9464605 18.4574581,16.2180395 18.4574581,18.2963289 L18.4574581,33.4858026 C18.4574581,36.1473816 16.3304043,38.2889605 13.6868774,38.2889605 L0.469243011,38.2889605 L0.469243011,0.636855263 L9.81842581,0.636855263 C12.8493075,0.636855263 14.2679097,2.26185526 15.1054796,4.79343421 L17.4907699,12.0631711 Z" id="Fill-29" fill="#FFFFFF" mask="url(#mask-10)"></path>
                </g>
                <g id="Group-34" transform="translate(295.612903, 0.020013)">
                    <mask id="mask-12" fill="white">
                        <use xlink:href="#path-11"></use>
                    </mask>
                    <g id="Clip-33"></g>
                    <path d="M8.16910968,5.57103947 C7.33153978,5.57103947 6.94418495,6.09103947 6.94418495,6.80432895 L6.94418495,32.1218289 C6.94418495,32.9018289 7.39609892,33.3551184 8.16910968,33.3551184 L12.1021204,33.3551184 C12.8768301,33.3551184 13.3270452,32.9018289 13.3270452,32.1218289 L13.3270452,6.80432895 C13.3270452,6.02603947 12.8768301,5.57103947 12.1021204,5.57103947 L8.16910968,5.57103947 Z M0.882421505,5.44103947 C0.882421505,2.77946053 3.01117419,0.637881579 5.65470108,0.637881579 L14.616529,0.637881579 C17.2600559,0.637881579 19.3888086,2.77946053 19.3888086,5.44103947 L19.3888086,33.4851184 C19.3888086,36.1466974 17.2600559,38.2882763 14.616529,38.2882763 L5.65470108,38.2882763 C3.01117419,38.2882763 0.882421505,36.1466974 0.882421505,33.4851184 L0.882421505,5.44103947 Z" id="Fill-32" fill="#FFFFFF" mask="url(#mask-12)"></path>
                </g>
            </g>
        </g>
    </g>
</svg>